<svg width="64" height="46" viewBox="0 0 64 46" fill="none" xmlns="http://www.w3.org/2000/svg">
<g clip-path="url(#clip0_202_301)">
<g filter="url(#filter0_df_202_301)">
<path d="M-50.2434 34.1993L-34.932 28.7953C-29.3083 26.8105 -23.129 27.1214 -17.733 29.6607L-11.7198 32.4905C-5.60568 35.3677 1.47314 35.3677 7.58723 32.4905L13.6004 29.6607C18.9965 27.1214 25.1758 26.8105 30.7995 28.7953L46.1109 34.1993" stroke="#F1F5F9" stroke-width="5.6679" stroke-linecap="round"/>
</g>
<g filter="url(#filter1_df_202_301)">
<path d="M-50.2434 20.0296L-34.932 14.6255C-29.3083 12.6407 -23.129 12.9516 -17.733 15.4909L-11.7198 18.3207C-5.60568 21.1979 1.47314 21.1979 7.58723 18.3207L13.6004 15.4909C18.9965 12.9516 25.1758 12.6407 30.7995 14.6255L46.1109 20.0296" stroke="#F1F5F9" stroke-width="5.6679" stroke-linecap="round"/>
</g>
</g>
<defs>
<filter id="filter0_df_202_301" x="-64.4139" y="13.3331" width="124.695" height="35.4851" filterUnits="userSpaceOnUse" color-interpolation-filters="sRGB">
<feFlood flood-opacity="0" result="BackgroundImageFix"/>
<feColorMatrix in="SourceAlpha" type="matrix" values="0 0 0 0 0 0 0 0 0 0 0 0 0 0 0 0 0 0 127 0" result="hardAlpha"/>
<feOffset/>
<feGaussianBlur stdDeviation="5.6679"/>
<feComposite in2="hardAlpha" operator="out"/>
<feColorMatrix type="matrix" values="0 0 0 0 0.580392 0 0 0 0 0.639216 0 0 0 0 0.721569 0 0 0 1 0"/>
<feBlend mode="normal" in2="BackgroundImageFix" result="effect1_dropShadow_202_301"/>
<feBlend mode="normal" in="SourceGraphic" in2="effect1_dropShadow_202_301" result="shape"/>
<feGaussianBlur stdDeviation="1.41697" result="effect2_foregroundBlur_202_301"/>
</filter>
<filter id="filter1_df_202_301" x="-64.4139" y="-0.836713" width="124.695" height="35.4851" filterUnits="userSpaceOnUse" color-interpolation-filters="sRGB">
<feFlood flood-opacity="0" result="BackgroundImageFix"/>
<feColorMatrix in="SourceAlpha" type="matrix" values="0 0 0 0 0 0 0 0 0 0 0 0 0 0 0 0 0 0 127 0" result="hardAlpha"/>
<feOffset/>
<feGaussianBlur stdDeviation="5.6679"/>
<feComposite in2="hardAlpha" operator="out"/>
<feColorMatrix type="matrix" values="0 0 0 0 0.580392 0 0 0 0 0.639216 0 0 0 0 0.721569 0 0 0 1 0"/>
<feBlend mode="normal" in2="BackgroundImageFix" result="effect1_dropShadow_202_301"/>
<feBlend mode="normal" in="SourceGraphic" in2="effect1_dropShadow_202_301" result="shape"/>
<feGaussianBlur stdDeviation="1.41697" result="effect2_foregroundBlur_202_301"/>
</filter>
<clipPath id="clip0_202_301">
<rect width="62.3469" height="45.3432" fill="white" transform="translate(0.7677 0.191925)"/>
</clipPath>
</defs>
</svg>
