<svg width="60" height="49" viewBox="0 0 60 49" fill="none" xmlns="http://www.w3.org/2000/svg">
<g filter="url(#filter0_i_1_573)">
<path fill-rule="evenodd" clip-rule="evenodd" d="M41.8262 6.72707C33.3706 7.98401 25.9649 12.1792 22.4887 18.462C16.8648 28.6264 23.6554 40.4056 37.656 44.7715C38.9398 45.1718 40.2397 45.4959 41.5463 45.7466C36.3221 46.5232 30.697 46.1781 25.3503 44.5108C11.3497 40.1449 4.55911 28.3658 10.1831 18.2013C15.2913 8.96898 28.8847 4.24431 41.8262 6.72707Z" fill="url(#paint0_linear_1_573)"/>
</g>
<g filter="url(#filter1_i_1_573)">
<path fill-rule="evenodd" clip-rule="evenodd" d="M41.8262 6.72707C33.3706 7.98401 25.9649 12.1792 22.4887 18.462C16.8648 28.6264 23.6554 40.4056 37.656 44.7715C38.9398 45.1718 40.2397 45.4959 41.5463 45.7466C36.3221 46.5232 30.697 46.1781 25.3503 44.5108C11.3497 40.1449 4.55911 28.3658 10.1831 18.2013C15.2913 8.96898 28.8847 4.24431 41.8262 6.72707Z" fill="url(#paint1_linear_1_573)"/>
</g>
<defs>
<filter id="filter0_i_1_573" x="8.20703" y="6.07112" width="33.6191" height="60.0708" filterUnits="userSpaceOnUse" color-interpolation-filters="sRGB">
<feFlood flood-opacity="0" result="BackgroundImageFix"/>
<feBlend mode="normal" in="SourceGraphic" in2="BackgroundImageFix" result="shape"/>
<feColorMatrix in="SourceAlpha" type="matrix" values="0 0 0 0 0 0 0 0 0 0 0 0 0 0 0 0 0 0 127 0" result="hardAlpha"/>
<feOffset dy="20"/>
<feGaussianBlur stdDeviation="32.5"/>
<feComposite in2="hardAlpha" operator="arithmetic" k2="-1" k3="1"/>
<feColorMatrix type="matrix" values="0 0 0 0 0.980392 0 0 0 0 0.423529 0 0 0 0 0.129412 0 0 0 1 0"/>
<feBlend mode="overlay" in2="shape" result="effect1_innerShadow_1_573"/>
</filter>
<filter id="filter1_i_1_573" x="8.20703" y="6.07112" width="33.6191" height="60.0708" filterUnits="userSpaceOnUse" color-interpolation-filters="sRGB">
<feFlood flood-opacity="0" result="BackgroundImageFix"/>
<feBlend mode="normal" in="SourceGraphic" in2="BackgroundImageFix" result="shape"/>
<feColorMatrix in="SourceAlpha" type="matrix" values="0 0 0 0 0 0 0 0 0 0 0 0 0 0 0 0 0 0 127 0" result="hardAlpha"/>
<feOffset dy="20"/>
<feGaussianBlur stdDeviation="32.5"/>
<feComposite in2="hardAlpha" operator="arithmetic" k2="-1" k3="1"/>
<feColorMatrix type="matrix" values="0 0 0 0 0.980392 0 0 0 0 0.423529 0 0 0 0 0.129412 0 0 0 1 0"/>
<feBlend mode="overlay" in2="shape" result="effect1_innerShadow_1_573"/>
</filter>
<linearGradient id="paint0_linear_1_573" x1="25.3503" y1="44.5108" x2="37.6163" y2="5.17626" gradientUnits="userSpaceOnUse">
<stop stop-color="#CEEE0D" stop-opacity="0.51"/>
<stop offset="1" stop-color="#DDAF2E" stop-opacity="0.36"/>
</linearGradient>
<linearGradient id="paint1_linear_1_573" x1="25.3503" y1="44.5108" x2="37.6163" y2="5.17626" gradientUnits="userSpaceOnUse">
<stop stop-color="#CEEE0D" stop-opacity="0.51"/>
<stop offset="1" stop-color="#DDAF2E" stop-opacity="0.36"/>
</linearGradient>
</defs>
</svg>
